<svg xmlns="http://www.w3.org/2000/svg" viewBox="0 0 760 435"><defs><marker id="arrow" markerWidth="8" markerHeight="8" refX="7" refY="4" orient="auto"><path d="M0 0L8 4L0 8z" fill="#397ba3"/></marker></defs><rect width="760" height="435" fill="#f2faff"/><g font-family="Arial, sans-serif" fill="#354653"><text x="45" y="38" font-size="24" fill="#397ba3" font-weight="bold">One empty rectangle changes a state</text><rect x="108" y="228" width="50" height="50" fill="#cbeade" stroke="#62ad93" stroke-width="2"/><path d="M58 78L58 328" fill="none" stroke="#b7dbef" stroke-width="1.4" /><path d="M58 78L308 78" fill="none" stroke="#b7dbef" stroke-width="1.4" /><path d="M108 78L108 328" fill="none" stroke="#b7dbef" stroke-width="1.4" /><path d="M58 128L308 128" fill="none" stroke="#b7dbef" stroke-width="1.4" /><path d="M158 78L158 328" fill="none" stroke="#b7dbef" stroke-width="1.4" /><path d="M58 178L308 178" fill="none" stroke="#b7dbef" stroke-width="1.4" /><path d="M208 78L208 328" fill="none" stroke="#b7dbef" stroke-width="1.4" /><path d="M58 228L308 228" fill="none" stroke="#b7dbef" stroke-width="1.4" /><path d="M258 78L258 328" fill="none" stroke="#b7dbef" stroke-width="1.4" /><path d="M58 278L308 278" fill="none" stroke="#b7dbef" stroke-width="1.4" /><path d="M308 78L308 328" fill="none" stroke="#b7dbef" stroke-width="1.4" /><path d="M58 328L308 328" fill="none" stroke="#b7dbef" stroke-width="1.4" /><circle cx="233" cy="303" r="7.000000000000001" fill="#f2faff" stroke="#397ba3" stroke-width="2.4"/><path d="M76.5 296.5L89.5 309.5" fill="none" stroke="#397ba3" stroke-width="2.8" /><path d="M89.5 296.5L76.5 309.5" fill="none" stroke="#397ba3" stroke-width="2.8" /><circle cx="183" cy="253" r="7.000000000000001" fill="#f2faff" stroke="#397ba3" stroke-width="2.4"/><path d="M276.5 246.5L289.5 259.5" fill="none" stroke="#397ba3" stroke-width="2.8" /><path d="M289.5 246.5L276.5 259.5" fill="none" stroke="#397ba3" stroke-width="2.8" /><circle cx="133" cy="203" r="7.000000000000001" fill="#f2faff" stroke="#397ba3" stroke-width="2.4"/><path d="M226.5 196.5L239.5 209.5" fill="none" stroke="#397ba3" stroke-width="2.8" /><path d="M239.5 196.5L226.5 209.5" fill="none" stroke="#397ba3" stroke-width="2.8" /><circle cx="83" cy="153" r="7.000000000000001" fill="#f2faff" stroke="#397ba3" stroke-width="2.4"/><path d="M176.5 146.5L189.5 159.5" fill="none" stroke="#397ba3" stroke-width="2.8" /><path d="M189.5 146.5L176.5 159.5" fill="none" stroke="#397ba3" stroke-width="2.8" /><circle cx="283" cy="103" r="7.000000000000001" fill="#f2faff" stroke="#397ba3" stroke-width="2.4"/><path d="M126.5 96.5L139.5 109.5" fill="none" stroke="#397ba3" stroke-width="2.8" /><path d="M139.5 96.5L126.5 109.5" fill="none" stroke="#397ba3" stroke-width="2.8" /><circle cx="58" cy="328" r="6.8" fill="#8496a4" stroke="#f2faff" stroke-width="2"/><circle cx="108" cy="278" r="6.8" fill="#397ba3" stroke="#f2faff" stroke-width="2"/><circle cx="158" cy="228" r="6.8" fill="#397ba3" stroke="#f2faff" stroke-width="2"/><circle cx="208" cy="178" r="6.8" fill="#8496a4" stroke="#f2faff" stroke-width="2"/><circle cx="258" cy="128" r="6.8" fill="#8496a4" stroke="#f2faff" stroke-width="2"/><rect x="501" y="228" width="50" height="50" fill="#cbeade" stroke="#62ad93" stroke-width="2"/><path d="M451 78L451 328" fill="none" stroke="#b7dbef" stroke-width="1.4" /><path d="M451 78L701 78" fill="none" stroke="#b7dbef" stroke-width="1.4" /><path d="M501 78L501 328" fill="none" stroke="#b7dbef" stroke-width="1.4" /><path d="M451 128L701 128" fill="none" stroke="#b7dbef" stroke-width="1.4" /><path d="M551 78L551 328" fill="none" stroke="#b7dbef" stroke-width="1.4" /><path d="M451 178L701 178" fill="none" stroke="#b7dbef" stroke-width="1.4" /><path d="M601 78L601 328" fill="none" stroke="#b7dbef" stroke-width="1.4" /><path d="M451 228L701 228" fill="none" stroke="#b7dbef" stroke-width="1.4" /><path d="M651 78L651 328" fill="none" stroke="#b7dbef" stroke-width="1.4" /><path d="M451 278L701 278" fill="none" stroke="#b7dbef" stroke-width="1.4" /><path d="M701 78L701 328" fill="none" stroke="#b7dbef" stroke-width="1.4" /><path d="M451 328L701 328" fill="none" stroke="#b7dbef" stroke-width="1.4" /><circle cx="626" cy="303" r="7.000000000000001" fill="#f2faff" stroke="#397ba3" stroke-width="2.4"/><path d="M469.5 296.5L482.5 309.5" fill="none" stroke="#397ba3" stroke-width="2.8" /><path d="M482.5 296.5L469.5 309.5" fill="none" stroke="#397ba3" stroke-width="2.8" /><circle cx="576" cy="253" r="7.000000000000001" fill="#f2faff" stroke="#397ba3" stroke-width="2.4"/><path d="M669.5 246.5L682.5 259.5" fill="none" stroke="#397ba3" stroke-width="2.8" /><path d="M682.5 246.5L669.5 259.5" fill="none" stroke="#397ba3" stroke-width="2.8" /><circle cx="526" cy="203" r="7.000000000000001" fill="#f2faff" stroke="#397ba3" stroke-width="2.4"/><path d="M619.5 196.5L632.5 209.5" fill="none" stroke="#397ba3" stroke-width="2.8" /><path d="M632.5 196.5L619.5 209.5" fill="none" stroke="#397ba3" stroke-width="2.8" /><circle cx="476" cy="153" r="7.000000000000001" fill="#f2faff" stroke="#397ba3" stroke-width="2.4"/><path d="M569.5 146.5L582.5 159.5" fill="none" stroke="#397ba3" stroke-width="2.8" /><path d="M582.5 146.5L569.5 159.5" fill="none" stroke="#397ba3" stroke-width="2.8" /><circle cx="676" cy="103" r="7.000000000000001" fill="#f2faff" stroke="#397ba3" stroke-width="2.4"/><path d="M519.5 96.5L532.5 109.5" fill="none" stroke="#397ba3" stroke-width="2.8" /><path d="M532.5 96.5L519.5 109.5" fill="none" stroke="#397ba3" stroke-width="2.8" /><circle cx="451" cy="328" r="6.8" fill="#8496a4" stroke="#f2faff" stroke-width="2"/><circle cx="501" cy="228" r="6.8" fill="#c47c32" stroke="#f2faff" stroke-width="2"/><circle cx="551" cy="278" r="6.8" fill="#c47c32" stroke="#f2faff" stroke-width="2"/><circle cx="601" cy="178" r="6.8" fill="#8496a4" stroke="#f2faff" stroke-width="2"/><circle cx="651" cy="128" r="6.8" fill="#8496a4" stroke="#f2faff" stroke-width="2"/><path d="M334 203L418 203" fill="none" stroke="#397ba3" stroke-width="2.4" marker-end="url(#arrow)"/><text x="376" y="180" font-size="16" text-anchor="middle">swap</text><text x="183" y="364" font-size="18" text-anchor="middle">x = (0, 1, 2, 3, 4)</text><text x="576" y="364" font-size="18" text-anchor="middle">y = (0, 2, 1, 3, 4)</text><text x="380" y="405" font-size="17" text-anchor="middle">The green cell contains no X, no O, and no state point.</text></g></svg>
