<svg xmlns="http://www.w3.org/2000/svg" viewBox="0 0 760 450"><defs><marker id="arrow" markerWidth="8" markerHeight="8" refX="7" refY="4" orient="auto"><path d="M0 0L8 4L0 8z" fill="#397ba3"/></marker></defs><rect width="760" height="450" fill="#f2faff"/><g font-family="Arial, sans-serif" fill="#354653"><text x="42" y="38" font-size="24" fill="#397ba3" font-weight="bold">From 48 grid classes to 3 hat classes</text><text x="208" y="73" font-size="17" text-anchor="middle">Fully blocked grid homology</text><text x="604" y="73" font-size="17" text-anchor="middle">Hat knot Floer homology</text><path d="M66 105L66 363" fill="none" stroke="#b7dbef" stroke-width="1.4" /><path d="M66 105L324 105" fill="none" stroke="#b7dbef" stroke-width="1.4" /><text x="66" y="389" font-size="15" text-anchor="middle">-5</text><text x="47" y="110" font-size="15" text-anchor="middle">0</text><path d="M109 105L109 363" fill="none" stroke="#b7dbef" stroke-width="1.4" /><path d="M66 148L324 148" fill="none" stroke="#b7dbef" stroke-width="1.4" /><text x="109" y="389" font-size="15" text-anchor="middle">-4</text><text x="47" y="153" font-size="15" text-anchor="middle">-1</text><path d="M152 105L152 363" fill="none" stroke="#b7dbef" stroke-width="1.4" /><path d="M66 191L324 191" fill="none" stroke="#b7dbef" stroke-width="1.4" /><text x="152" y="389" font-size="15" text-anchor="middle">-3</text><text x="47" y="196" font-size="15" text-anchor="middle">-2</text><path d="M195 105L195 363" fill="none" stroke="#b7dbef" stroke-width="1.4" /><path d="M66 234L324 234" fill="none" stroke="#b7dbef" stroke-width="1.4" /><text x="195" y="389" font-size="15" text-anchor="middle">-2</text><text x="47" y="239" font-size="15" text-anchor="middle">-3</text><path d="M238 105L238 363" fill="none" stroke="#b7dbef" stroke-width="1.4" /><path d="M66 277L324 277" fill="none" stroke="#b7dbef" stroke-width="1.4" /><text x="238" y="389" font-size="15" text-anchor="middle">-1</text><text x="47" y="282" font-size="15" text-anchor="middle">-4</text><path d="M281 105L281 363" fill="none" stroke="#b7dbef" stroke-width="1.4" /><path d="M66 320L324 320" fill="none" stroke="#b7dbef" stroke-width="1.4" /><text x="281" y="389" font-size="15" text-anchor="middle">0</text><text x="47" y="325" font-size="15" text-anchor="middle">-5</text><path d="M324 105L324 363" fill="none" stroke="#b7dbef" stroke-width="1.4" /><path d="M66 363L324 363" fill="none" stroke="#b7dbef" stroke-width="1.4" /><text x="324" y="389" font-size="15" text-anchor="middle">1</text><text x="47" y="368" font-size="15" text-anchor="middle">-6</text><circle cx="66" cy="363" r="7.5" fill="#397ba3" /><text x="79" y="368" font-size="16" fill="#397ba3" font-weight="bold">1</text><circle cx="109" cy="320" r="7.5" fill="#397ba3" /><text x="122" y="325" font-size="16" fill="#397ba3" font-weight="bold">5</text><circle cx="152" cy="277" r="7.5" fill="#397ba3" /><text x="165" y="282" font-size="16" fill="#397ba3" font-weight="bold">11</text><circle cx="195" cy="234" r="7.5" fill="#397ba3" /><text x="208" y="239" font-size="16" fill="#397ba3" font-weight="bold">14</text><circle cx="238" cy="191" r="7.5" fill="#397ba3" /><text x="251" y="196" font-size="16" fill="#397ba3" font-weight="bold">11</text><circle cx="281" cy="148" r="7.5" fill="#397ba3" /><text x="294" y="153" font-size="16" fill="#397ba3" font-weight="bold">5</text><circle cx="324" cy="105" r="7.5" fill="#397ba3" /><text x="337" y="110" font-size="16" fill="#397ba3" font-weight="bold">1</text><text x="188" y="420" font-size="16" text-anchor="middle">Alexander A</text><text x="19" y="94" font-size="17" >M</text><path d="M374 237L450 237" fill="none" stroke="#397ba3" stroke-width="2.4" marker-end="url(#arrow)"/><text x="412" y="207" font-size="15" text-anchor="middle">remove</text><text x="412" y="271" font-size="13" text-anchor="middle">four V factors</text><path d="M535 138L535 268" fill="none" stroke="#b7dbef" stroke-width="1.4" /><path d="M535 138L665 138" fill="none" stroke="#b7dbef" stroke-width="1.4" /><text x="535" y="295" font-size="16" text-anchor="middle">-1</text><text x="514" y="143" font-size="16" text-anchor="middle">0</text><path d="M600 138L600 268" fill="none" stroke="#b7dbef" stroke-width="1.4" /><path d="M535 203L665 203" fill="none" stroke="#b7dbef" stroke-width="1.4" /><text x="600" y="295" font-size="16" text-anchor="middle">0</text><text x="514" y="208" font-size="16" text-anchor="middle">-1</text><path d="M665 138L665 268" fill="none" stroke="#b7dbef" stroke-width="1.4" /><path d="M535 268L665 268" fill="none" stroke="#b7dbef" stroke-width="1.4" /><text x="665" y="295" font-size="16" text-anchor="middle">1</text><text x="514" y="273" font-size="16" text-anchor="middle">-2</text><circle cx="535" cy="268" r="9" fill="#397ba3" /><text x="552" y="273" font-size="18" fill="#397ba3" font-weight="bold">1</text><circle cx="600" cy="203" r="9" fill="#397ba3" /><text x="617" y="208" font-size="18" fill="#397ba3" font-weight="bold">1</text><circle cx="665" cy="138" r="9" fill="#397ba3" /><text x="682" y="143" font-size="18" fill="#397ba3" font-weight="bold">1</text><text x="600" y="329" font-size="16" text-anchor="middle">Alexander A</text><text x="493" y="124" font-size="17" >M</text><text x="603" y="382" font-size="14" text-anchor="middle">Numbers beside dots are dimensions.</text></g></svg>
